# xmcd
#
# Track frame offsets: 
#        150
#        18360
#        36212
#        52762
#        72327
#        87475
#        112110
#        140725
#        157142
#        179985
#        195602
#        225255
#
# Disc length: 3175 seconds
#
# Revision: 0
# Processed by: cddbd v1.5.2PL0 Copyright (c) Steve Scherf et al.
# Submitted via: ExactAudioCopy v0.99pb5
#
DISCID=aa0c650c
DTITLE=Marcio Maresia - Mr. Powerharp
DYEAR=2001
DGENRE=Blues
TTITLE0=Here I am
TTITLE1=When you shake that way
TTITLE2=Blue groove
TTITLE3=Can't you see
TTITLE4=Mr. Powerhap's blues
TTITLE5=The spell
TTITLE6=We can make it!
TTITLE7=Mr. Slick
TTITLE8=Things are not what they used to be
TTITLE9=Bullet train
TTITLE10=To love you and have the blues
TTITLE11=How sweet life can be
EXTD=
EXTT0=
EXTT1=
EXTT2=
EXTT3=
EXTT4=
EXTT5=
EXTT6=
EXTT7=
EXTT8=
EXTT9=
EXTT10=
EXTT11=
PLAYORDER=
